<svg xmlns="http://www.w3.org/2000/svg" xmlns:xlink="http://www.w3.org/1999/xlink" id="Layer_1" x="0px" y="0px" viewBox="0 0 331.6 71" style="enable-background:new 0 0 331.6 71;" xml:space="preserve"><style type="text/css">	.st0{fill:#FFFFFF;}</style><g>	<path class="st0" d="M41.3,44.4c0,5.4-4.5,9-11.5,9c-3.9,0-7.2-1.1-9.4-3.1c-2.3-2-3.6-5-3.8-8.6v-0.1l2.4-0.3v0.1  c0.2,3.2,1.3,5.6,3.1,7.2c1.9,1.7,4.5,2.5,7.8,2.5c5.5,0,9.1-2.6,9.1-6.7s-2.6-6.3-10.3-8.6C20.5,33.2,18,31,18,26.6  c0-5.2,4.3-8.8,10.5-8.8c3.1,0,5.7,0.9,7.9,2.7c2.2,1.7,3.5,4.1,3.9,7v0.1L38,28v-0.1c-0.4-2.4-1.5-4.3-3.2-5.7  c-1.7-1.4-3.9-2.1-6.3-2.1c-4.8,0-8,2.6-8,6.5c0,3.3,2.2,5,9.1,7C38.3,36.3,41.3,39.1,41.3,44.4L41.3,44.4z"></path>	<g>		<path class="st0" d="M76.4,53.3c-8.6,0-14.3-7.1-14.3-17.8s5.7-17.8,14.3-17.8s14.3,7.1,14.3,17.8S85,53.3,76.4,53.3z M76.4,20   c-7.3,0-12,6.1-12,15.5S69.1,51,76.4,51s12-6.1,12-15.5S83.7,20,76.4,20z"></path>		<path class="st0" d="M76.4,17.8c8.5,0,14.3,7.1,14.3,17.7S85,53.3,76.4,53.3s-14.3-7.1-14.3-17.7S67.9,17.8,76.4,17.8L76.4,17.8z    M76.4,51.1c7.2,0,12-6.1,12-15.6S83.7,20,76.4,20s-12,6.1-12,15.6S69.2,51.1,76.4,51.1L76.4,51.1z M76.4,17.8   c-8.6,0-14.3,7.1-14.3,17.8s5.8,17.8,14.3,17.8s14.3-7.2,14.3-17.8S85,17.8,76.4,17.8L76.4,17.8z M76.4,51.1   c-7.2,0-11.9-6.1-11.9-15.5S69.2,20,76.4,20s11.9,6.1,11.9,15.5S83.7,51.1,76.4,51.1L76.4,51.1z"></path>	</g>	<g>		<path class="st0" d="M138.9,29.3l-2.2,0.5l0,0L138.9,29.3z"></path>		<path class="st0" d="M139,41.1L139,41.1l-2.3-0.3L139,41.1L139,41.1z"></path>		<path class="st0" d="M136.7,40.8l2.3,0.3l0,0L136.7,40.8L136.7,40.8z M136.7,29.8L136.7,29.8l2.2-0.4   C138.9,29.3,136.7,29.8,136.7,29.8z"></path>		<path class="st0" d="M139,41l-2.3-0.3h-0.1l0,0c-1,6.7-4.8,10.4-10.8,10.4c-7.2,0-11.9-6.1-11.9-15.6s4.8-15.5,12-15.5   c5.8,0,9.6,3.5,10.7,9.8v0.1h0.1l2.2-0.4h0.1v-0.1c-0.6-3.5-2.1-6.5-4.4-8.5c-2.3-2-5.3-3.1-8.7-3.1c-8.6,0-14.4,7.1-14.4,17.8   s5.8,17.9,14.3,17.9C133.2,53.4,138.1,48.8,139,41L139,41L139,41L139,41z M136.7,29.8L136.7,29.8l2.2-0.5L136.7,29.8z M139,41.1   l-2.3-0.3L139,41.1L139,41.1L139,41.1z"></path>	</g>	<path class="st0" d="M164.6,17.8h2.4v35.6h-2.4V17.8z"></path>	<path class="st0" d="M197.1,17.8h21.6V20h-19.2v13.9h17.8v2.2h-17.8v15h19.2v2.3h-21.6V17.8z"></path>	<path class="st0" d="M252.5,20h-12.8v-2.3h28V20h-12.8v33.3h-2.4L252.5,20L252.5,20z"></path>	<path class="st0" d="M312.4,17.8l-11.2,18.6h-0.1L290,17.8h-2.8l12.8,21v14.6h2.4V38.7l12.8-21L312.4,17.8L312.4,17.8z"></path></g></svg>